<?xml version="1.0" standalone="no"?>
<!DOCTYPE svg PUBLIC "-//W3C//DTD SVG 20010904//EN"
 "http://www.w3.org/TR/2001/REC-SVG-20010904/DTD/svg10.dtd">
<svg version="1.0" xmlns="http://www.w3.org/2000/svg"
 width="441.000000pt" height="280.000000pt" viewBox="0 0 441.000000 280.000000"
 preserveAspectRatio="xMidYMid meet">

<g transform="translate(0.000000,280.000000) scale(0.100000,-0.100000)"
fill="#000000" stroke="none">
<path d="M2040 2786 c-417 -89 -688 -481 -616 -893 55 -315 271 -545 591 -631
83 -22 268 -21 360 2 271 69 491 282 565 548 60 218 23 452 -104 642 -98 147
-233 249 -402 305 -83 28 -117 34 -214 37 -73 2 -139 -1 -180 -10z m321 -91
c244 -63 440 -259 505 -505 22 -85 23 -244 1 -330 -81 -315 -356 -530 -676
-530 -120 0 -202 19 -311 72 -70 34 -101 57 -176 132 -145 146 -207 294 -206
491 1 122 18 192 78 313 94 192 284 332 506 372 70 12 200 5 279 -15z"/>
<path d="M1744 2321 c-18 -11 -39 -30 -48 -42 -22 -32 -20 -117 4 -179 l20
-51 -25 -33 c-79 -104 -72 -213 18 -280 38 -28 127 -28 183 0 l41 20 44 -38
c60 -52 183 -114 260 -133 160 -37 346 3 433 94 l26 27 -30 29 -29 28 -35 -31
c-56 -49 -138 -75 -236 -76 -124 0 -236 42 -337 129 l-42 36 19 42 c30 65 27
77 -20 77 -35 0 -42 -4 -51 -27 l-10 -28 -20 25 c-10 14 -33 45 -49 69 l-30
44 39 42 c72 78 88 141 55 210 -28 61 -119 83 -180 46z m96 -79 c18 -14 21
-25 17 -45 -7 -26 -53 -87 -66 -87 -10 0 -31 62 -31 93 0 15 9 32 22 41 28 20
31 20 58 -2z m-20 -353 c58 -80 56 -89 -17 -89 -33 0 -46 5 -62 26 -12 15 -21
35 -21 45 0 22 31 89 41 89 3 0 30 -32 59 -71z"/>
<path d="M2160 2327 c-74 -26 -104 -110 -98 -277 5 -166 41 -227 139 -237 78
-8 135 42 154 135 l7 32 -46 0 c-37 0 -46 -3 -46 -18 0 -28 -29 -62 -54 -62
-13 0 -31 9 -41 20 -38 42 -38 268 1 311 26 29 64 21 89 -18 17 -27 26 -32 59
-33 37 0 38 1 31 28 -13 51 -38 93 -64 107 -41 21 -93 26 -131 12z"/>
<path d="M2503 2329 c-40 -12 -79 -58 -94 -112 -7 -23 -12 -92 -12 -154 0
-100 3 -117 26 -166 31 -62 61 -82 127 -82 63 0 95 19 122 74 21 41 23 61 23
186 0 120 -3 146 -20 179 -34 67 -101 97 -172 75z m83 -100 c17 -18 19 -37 19
-148 0 -106 -3 -132 -18 -155 -25 -37 -66 -33 -87 9 -16 33 -21 208 -7 257 16
57 59 74 93 37z"/>
<path d="M0 340 l0 -330 220 0 220 0 0 70 0 70 -140 0 -140 0 0 260 0 260 -80
0 -80 0 0 -330z"/>
<path d="M510 340 l0 -330 230 0 230 0 0 70 0 70 -150 0 -150 0 0 60 0 60 110
0 110 0 0 70 0 70 -110 0 -110 0 0 60 0 59 138 3 137 3 3 68 3 67 -221 0 -220
0 0 -330z"/>
<path d="M1010 667 c0 -4 171 -471 216 -590 l26 -68 71 3 71 3 112 307 c62
169 115 316 119 327 6 20 3 21 -77 21 l-84 0 -69 -210 c-38 -116 -72 -210 -75
-210 -4 0 -37 94 -74 210 l-67 210 -84 0 c-47 0 -85 -2 -85 -3z"/>
<path d="M1700 340 l0 -330 225 0 225 0 0 70 0 70 -150 0 -150 0 0 60 0 60
110 0 110 0 0 70 0 70 -110 0 -110 0 0 60 0 60 140 0 140 0 0 70 0 70 -215 0
-215 0 0 -330z"/>
<path d="M2240 340 l0 -330 220 0 220 0 0 70 0 70 -140 0 -140 0 0 260 0 260
-80 0 -80 0 0 -330z"/>
<path d="M4223 655 c-57 -17 -134 -68 -177 -115 -102 -114 -134 -296 -72 -418
29 -58 48 -75 111 -103 99 -44 228 -8 290 79 27 39 30 52 30 115 0 89 -22 138
-78 175 -36 24 -51 27 -123 27 -74 0 -81 2 -73 17 17 31 84 79 141 99 l56 21
-20 59 c-11 32 -25 59 -31 58 -7 0 -31 -6 -54 -14z m14 -377 c31 -29 32 -87 1
-115 -63 -57 -134 -27 -153 64 -6 29 -3 34 27 53 44 27 95 26 125 -2z"/>
<path d="M3077 646 c-45 -17 -103 -59 -118 -87 -6 -12 -9 -22 -7 -23 2 -2 25
-19 52 -39 l49 -37 34 30 c91 81 178 -16 104 -116 -16 -21 -77 -91 -135 -154
-104 -112 -106 -116 -106 -162 l0 -48 215 0 215 0 0 70 0 70 -101 0 -101 0 76
81 c101 109 119 148 114 243 -4 85 -31 131 -95 162 -49 23 -147 28 -196 10z"/>
<path d="M3486 603 c-3 -27 -8 -104 -12 -174 l-6 -125 39 -15 c34 -14 42 -14
60 -2 12 8 40 14 63 15 83 1 126 -87 66 -139 -35 -29 -86 -30 -137 -1 -43 24
-36 26 -111 -41 -27 -24 -27 -25 -10 -44 34 -38 114 -70 188 -75 61 -4 80 -1
126 21 221 100 133 438 -103 401 l-42 -7 6 39 c4 21 7 45 7 52 0 9 29 12 110
12 l110 0 0 65 0 65 -174 0 -174 0 -6 -47z"/>
</g>
</svg>
